# xmcd CD database file
#
# Track frame offsets:
#	150
#	19213
#	39774
#	59901
#	81051
#	101860
#	125846
#	148287
#	173827
#	193247
#	212637
#	234576
#	252028
#	268380
#	296981
#
# Disc length: 4231 seconds
#
# Revision: 3
# Processed by: cddbd v1.5.2PL0 Copyright (c) Steve Scherf et al.
# Submitted via: CDex 1.70beta2
#
DISCID=f310850f
DTITLE=Immanuel Lobpreiswerkstatt - Mit ganzem herzen 5
DYEAR=2005
DGENRE=Contemporary Christian
TTITLE0=weites land
TTITLE1=solange ich lebe
TTITLE2=derselbe
TTITLE3=gott, dich suche ich
TTITLE4=wir brauchen mehr
TTITLE5=koenig meines herzens
TTITLE6=komm zum kreuz
TTITLE7=komm herab, o heiliger geist
TTITLE8=du mein herr und mein gott
TTITLE9=mein glueck
TTITLE10=ich hab einen freund
TTITLE11=halleluja jesus lebt
TTITLE12=deine liebe nimmt die furcht
TTITLE13=ich trau auf dich, o herr
TTITLE14=bonus
EXTD=YEAR: 2005
EXTT0=
EXTT1=
EXTT2=
EXTT3=
EXTT4=
EXTT5=
EXTT6=
EXTT7=
EXTT8=
EXTT9=
EXTT10=
EXTT11=
EXTT12=
EXTT13=
EXTT14=
PLAYORDER=
